<?xml version="1.0" standalone="no"?><!DOCTYPE svg PUBLIC "-//W3C//DTD SVG 1.1//EN" "http://www.w3.org/Graphics/SVG/1.1/DTD/svg11.dtd">
<svg class="icon" viewBox="0 0 1024 1024" version="1.1" xmlns="http://www.w3.org/2000/svg"
     width="32" height="32">
    <path d="M128 128h768a42.667 42.667 0 0 1 42.667 42.667v682.666A42.667 42.667 0 0 1 896 896H128a42.667 42.667 0 0 1-42.667-42.667V170.667A42.667 42.667 0 0 1 128 128z m170.667 533.333V490.667L384 576l85.333-85.333v170.666h85.334V362.667h-85.334L384 448l-85.333-85.333h-85.334v298.666h85.334z m469.333-128V362.667h-85.333v170.666h-85.334l128 128 128-128H768z"
          fill="#d81e06"/>
</svg>
