<?xml version="1.0" standalone="no"?><!DOCTYPE svg PUBLIC "-//W3C//DTD SVG 1.1//EN" "http://www.w3.org/Graphics/SVG/1.1/DTD/svg11.dtd">
<svg class="icon" viewBox="0 0 1024 1024" version="1.1" xmlns="http://www.w3.org/2000/svg"
     width="32" height="32">
    <path d="M512 512m-405.333333 0a405.333333 405.333333 0 1 0 810.666666 0 405.333333 405.333333 0 1 0-810.666666 0Z" fill="#FF5722"
    />
    <path d="M581.546667 337.28h-158.506667v-113.706667h59.306667v85.333334h39.466666v-85.333334h59.733334zM423.04 693.546667h158.506667v113.706666h-59.52v-85.333333h-39.253334v85.333333h-59.733333z"
          fill="#FFFFFF"/>
    <path d="M362.666667 746.666667V289.706667h160.426666c172.16 0 169.386667 103.893333 169.386667 125.44A100.266667 100.266667 0 0 1 627.2 512a97.28 97.28 0 0 1 76.8 100.906667c0 122.24-112.213333 134.4-165.12 134.4z m94.506666-265.813334h69.76c24.106667 0 71.253333-6.186667 71.253334-56.96 0-57.813333-49.066667-58.453333-75.093334-58.453333h-65.92z m0 66.56v123.52h80.64c12.16 0 70.826667-2.346667 70.826667-59.733333a58.88 58.88 0 0 0-67.413333-64z"
          fill="#FFFFFF"/>
</svg>