<?xml version="1.0" standalone="no"?><!DOCTYPE svg PUBLIC "-//W3C//DTD SVG 1.1//EN" "http://www.w3.org/Graphics/SVG/1.1/DTD/svg11.dtd">
<svg class="icon" viewBox="0 0 1025 1024" version="1.1" xmlns="http://www.w3.org/2000/svg"
     width="32.03125" height="32">
    <path d="M832.61248 316.8h-149.333333V234.666667a21.333333 21.333333 0 0 1 24.32-21.333334l106.666666 15.146667a21.333333 21.333333 0 0 1 18.346667 21.333333zM192.61248 316.8h149.333333V234.666667a21.333333 21.333333 0 0 0-24.32-21.333334l-106.666666 15.146667a21.333333 21.333333 0 0 0-18.346667 21.333333z"
          fill="#F44336"/>
    <path d="M116.665813 272.426667A2141.013333 2141.013333 0 0 1 512.61248 234.666667a2141.013333 2141.013333 0 0 1 395.946667 37.76l105.6 299.946666a178.56 178.56 0 0 1-98.773334 226.56 173.44 173.44 0 0 1-170.666666-26.026666A373.546667 373.546667 0 0 0 512.61248 694.613333a373.546667 373.546667 0 0 0-232.106667 78.293334 173.44 173.44 0 0 1-170.666666 26.026666A178.56 178.56 0 0 1 11.065813 572.373333z"
          fill="#B0BEC5"/>
    <path d="M747.279147 405.333333m-42.666667 0a42.666667 42.666667 0 1 0 85.333333 0 42.666667 42.666667 0 1 0-85.333333 0Z"
          fill="#E040FB"/>
    <path d="M747.279147 576m-42.666667 0a42.666667 42.666667 0 1 0 85.333333 0 42.666667 42.666667 0 1 0-85.333333 0Z" fill="#388E3C"
    />
    <path d="M661.945813 490.666667m-42.666666 0a42.666667 42.666667 0 1 0 85.333333 0 42.666667 42.666667 0 1 0-85.333333 0Z"
          fill="#F44336"/>
    <path d="M832.61248 490.666667m-42.666667 0a42.666667 42.666667 0 1 0 85.333334 0 42.666667 42.666667 0 1 0-85.333334 0Z" fill="#2196F3"
    />
    <path d="M405.945813 512v-21.333333a21.333333 21.333333 0 0 0-21.333333-21.333334h-42.666667l-32 32L341.945813 533.333333h42.666667a21.333333 21.333333 0 0 0 21.333333-21.333333zM171.279147 490.666667v21.333333a21.333333 21.333333 0 0 0 21.333333 21.333333h42.666667l32-32L235.279147 469.333333H192.61248a21.333333 21.333333 0 0 0-21.333333 21.333334zM277.945813 618.666667h21.333334a21.333333 21.333333 0 0 0 21.333333-21.333334v-42.666666l-32-32L256.61248 554.666667v42.666666a21.333333 21.333333 0 0 0 21.333333 21.333334zM299.279147 384h-21.333334a21.333333 21.333333 0 0 0-21.333333 21.333333v42.666667l32 32L320.61248 448v-42.666667a21.333333 21.333333 0 0 0-21.333333-21.333333z"
          fill="#607D8B"/>
</svg>