<?xml version="1.0" standalone="no"?><!DOCTYPE svg PUBLIC "-//W3C//DTD SVG 1.1//EN" "http://www.w3.org/Graphics/SVG/1.1/DTD/svg11.dtd">
<svg class="icon" viewBox="0 0 1024 1024" version="1.1" xmlns="http://www.w3.org/2000/svg"
     width="32" height="32">
    <path d="M743.253333 479.786667c-9.386667 42.666667-17.92 53.546667-44.8 53.546666a57.386667 57.386667 0 0 1-61.44-53.76 59.306667 59.306667 0 0 1 64-52.906666c41.813333 0 51.84 10.666667 42.24 53.12zM280.746667 479.786667c9.386667 42.666667 17.92 53.546667 44.8 53.546666a57.386667 57.386667 0 0 0 61.44-53.76 59.306667 59.306667 0 0 0-64-52.906666c-41.813333 0-51.84 10.666667-42.24 53.12z"
          fill="#FB8C00"/>
    <path d="M789.333333 791.893333C759.893333 751.146667 597.333333 682.666667 597.333333 682.666667h-170.666666s-162.56 68.48-192 109.226666A286.506667 286.506667 0 0 0 192 917.333333h640a286.506667 286.506667 0 0 0-42.666667-125.44z"
          fill="#BF360C"/>
    <path d="M426.666667 490.666667v192c0 64 85.333333 106.666667 85.333333 106.666666s85.333333-42.666667 85.333333-106.666666v-192z"
          fill="#FB8C00"/>
    <path d="M298.666667 378.666667C298.666667 591.786667 413.44 682.666667 512 682.666667V192c-123.52 0-213.333333 106.666667-213.333333 186.666667zM725.333333 378.666667C725.333333 591.786667 610.56 682.666667 512 682.666667V192c123.52 0 213.333333 106.666667 213.333333 186.666667z"
          fill="#FFB74D"/>
    <path d="M512 106.666667c-117.76 0-234.666667 74.24-234.666667 192a725.333333 725.333333 0 0 0 33.493334 192 1135.786667 1135.786667 0 0 0 9.173333-128c195.626667 0 298.666667-106.666667 298.666667-106.666667s16 81.706667 85.333333 106.666667c4.266667 91.946667 8.96 128 8.96 128A887.68 887.68 0 0 0 746.666667 298.666667c0-85.333333-42.666667-149.333333-128-149.333334a139.733333 139.733333 0 0 0-106.666667-42.666666z"
          fill="#8D6E63"/>
    <path d="M640 469.333333a66.773333 66.773333 0 0 1-42.666667 21.333334 66.773333 66.773333 0 0 1-42.666666-21.333334 66.773333 66.773333 0 0 1 42.666666-21.333333 66.773333 66.773333 0 0 1 42.666667 21.333333zM469.333333 469.333333a66.773333 66.773333 0 0 1-42.666666 21.333334 66.773333 66.773333 0 0 1-42.666667-21.333334 66.773333 66.773333 0 0 1 42.666667-21.333333 66.773333 66.773333 0 0 1 42.666666 21.333333z"
          fill="#FFFFFF"/>
    <path d="M480.426667 548.48a86.4 86.4 0 0 0 64 0 33.28 33.28 0 0 1-64 0z" fill="#FCA230"/>
    <path d="M650.666667 413.866667A174.506667 174.506667 0 0 0 597.333333 405.333333c-29.653333 0-42.666667 0-42.666666-10.666666s15.146667-10.666667 42.666666-10.666667a60.8 60.8 0 0 1 53.333334 29.866667zM373.333333 413.866667A174.506667 174.506667 0 0 1 426.666667 405.333333c29.653333 0 42.666667 0 42.666666-10.666666s-15.146667-10.666667-42.666666-10.666667a60.8 60.8 0 0 0-53.333334 29.866667z"
          fill="#6D4C41"/>
    <path d="M679.253333 576H344.746667A196.906667 196.906667 0 0 0 512 682.666667a196.906667 196.906667 0 0 0 167.253333-106.666667z"
          fill="#FFCC80"/>
    <path d="M748.16 897.706667l18.133333-234.666667a21.333333 21.333333 0 0 0-21.333333-23.04H279.04a21.333333 21.333333 0 0 0-21.333333 23.04l18.133333 234.666667a21.333333 21.333333 0 0 0 21.333333 19.626666h429.653334a21.333333 21.333333 0 0 0 21.333333-19.626666z"
          fill="#B0BEC5"/>
    <path d="M512 810.666667m-42.666667 0a42.666667 42.666667 0 1 0 85.333334 0 42.666667 42.666667 0 1 0-85.333334 0Z" fill="#ECEFF1"
    />
    <path d="M458.666667 588.8a170.666667 170.666667 0 0 0 106.666666 0A75.093333 75.093333 0 0 1 512 618.666667a75.093333 75.093333 0 0 1-53.333333-29.866667z"
          fill="#FB8C00"/>
    <path d="M426.666667 490.666667a45.226667 45.226667 0 0 0 20.266666-5.12 21.333333 21.333333 0 0 0-40.533333 0A45.226667 45.226667 0 0 0 426.666667 490.666667zM597.333333 490.666667a45.226667 45.226667 0 0 0 20.266667-5.12 21.333333 21.333333 0 0 0-40.533333 0A45.226667 45.226667 0 0 0 597.333333 490.666667z"
          fill="#3E2723"/>
</svg>