<?xml version="1.0" standalone="no"?><!DOCTYPE svg PUBLIC "-//W3C//DTD SVG 1.1//EN" "http://www.w3.org/Graphics/SVG/1.1/DTD/svg11.dtd">
<svg t="1767084976770" class="icon" viewBox="0 0 1024 1024" version="1.1" xmlns="http://www.w3.org/2000/svg" p-id="5096"
     width="32" height="32">
    <path d="M99.84 64h824.32Q960 64 960 99.84v824.32Q960 960 924.16 960H99.84Q64 960 64 924.16V99.84Q64 64 99.84 64z" fill="#F08705"
          p-id="5097"></path>
    <path d="M539.552 293.376l96.64-101.984L960 515.008V924.16A35.808 35.808 0 0 1 924.16 960H362.112l-172.32-173.024z" fill="#DF6C0C"
          p-id="5098"></path>
    <path d="M807.68 574.72H702.272L604 404.48h6.4a35.808 35.808 0 0 0 35.84-35.84V216.32a35.808 35.808 0 0 0-35.84-35.84H413.44a35.808 35.808 0 0 0-35.84 35.84v152.32a35.808 35.808 0 0 0 35.84 35.84H420l-98.272 170.24H216.32a35.808 35.808 0 0 0-35.84 35.84v152.32a35.808 35.808 0 0 0 35.84 35.84h197.12a35.808 35.808 0 0 0 35.84-35.84V610.56a35.808 35.808 0 0 0-35.84-35.84h-29.664l98.304-170.24h59.84l98.272 170.24H610.56a35.808 35.808 0 0 0-35.84 35.84v152.32a35.808 35.808 0 0 0 35.84 35.84h197.12a35.808 35.808 0 0 0 35.84-35.84V610.56a35.808 35.808 0 0 0-35.84-35.84z"
          fill="#FFFFFF" p-id="5099"></path>
</svg>