<?xml version="1.0" standalone="no"?>
<!DOCTYPE svg PUBLIC "-//W3C//DTD SVG 1.1//EN" "http://www.w3.org/Graphics/SVG/1.1/DTD/svg11.dtd">
<svg viewBox="0 0 1024 1024" version="1.1" xmlns="http://www.w3.org/2000/svg" width="16" height="16">
    <!-- 标签主体 -->
    <path d="M938.667 469.333L554.667 85.333c-22.4-22.4-52.267-34.133-84.267-34.133H213.333C154.667 51.2 106.667 99.2 106.667 157.867v256c0 32 11.733 61.867 34.133 84.267l384 384c46.933 46.933 123.733 46.933 170.667 0l243.2-243.2c46.933-46.934 46.933-123.734 0-170.667z m-469.334 341.334L170.667 512V213.333h298.666l298.667 298.667-298.667 298.667z"
          fill="#9C27B0"/>
    <!-- 标签孔 -->
    <circle cx="298.667" cy="298.667" r="53.333" fill="#FFFFFF"/>
    <!-- 替换箭头 -->
    <path d="M640 576l85.333 85.333L640 746.667v-64H512v-42.667h128z" fill="#E91E63"/>
</svg>

