<?xml version="1.0" standalone="no"?>
<!DOCTYPE svg PUBLIC "-//W3C//DTD SVG 1.1//EN" "http://www.w3.org/Graphics/SVG/1.1/DTD/svg11.dtd">
<svg viewBox="0 0 1024 1024" version="1.1" xmlns="http://www.w3.org/2000/svg" width="16" height="16">
    <!-- 左侧云 -->
    <path d="M298.667 426.667c-70.692 0-128 57.308-128 128s57.308 128 128 128h42.666v-85.334h-42.666c-23.564 0-42.667-19.102-42.667-42.666s19.103-42.667 42.667-42.667h42.666v-85.333h-42.666z"
          fill="#FF9800"/>
    <!-- 右侧云 -->
    <path d="M725.333 426.667c70.692 0 128 57.308 128 128s-57.308 128-128 128h-42.666v-85.334h42.666c23.564 0 42.667-19.102 42.667-42.666s-19.103-42.667-42.667-42.667h-42.666v-85.333h42.666z"
          fill="#4CAF50"/>
    <!-- 迁移箭头 -->
    <path d="M426.667 469.333h256v85.334h-256z" fill="#2196F3"/>
    <path d="M597.333 384L768 554.667 597.333 725.333v-128H426.667v-85.333h170.666z" fill="#2196F3"/>
</svg>

