<?xml version="1.0" standalone="no"?>
<!DOCTYPE svg PUBLIC "-//W3C//DTD SVG 1.1//EN" "http://www.w3.org/Graphics/SVG/1.1/DTD/svg11.dtd">
<svg viewBox="0 0 1024 1024" version="1.1" xmlns="http://www.w3.org/2000/svg" width="16" height="16">
    <!-- 云朵 -->
    <path d="M854.6 289.1c-18.8-43.4-45.7-82.3-79.9-115.7-34.2-33.4-73.9-59.5-118.2-77.8C610.7 76.6 562.1 67 512 67c-50.1 0-98.7 9.6-144.5 28.5-44.3 18.3-84 44.5-118.2 77.8-34.2 33.4-61.1 72.4-79.9 115.7-19.5 45-29.4 92.8-29.4 142 0 70.6 23.6 135.5 66.3 188.4l0.2 0.2c42.1 52.2 99 87.7 164.8 102.5v53.9h85.4v-53.9c65.8-14.8 122.7-50.3 164.8-102.5l0.2-0.2c42.7-52.9 66.3-117.8 66.3-188.4 0-49.2-9.9-97-29.4-142z"
          fill="#4A90E2"/>
    <!-- 上传箭头 -->
    <path d="M512 384l-128 128h85.3v213.3h85.4V512H640z" fill="#FFFFFF"/>
    <path d="M426.7 725.3h170.6v85.4H426.7z" fill="#FFFFFF"/>
</svg>

